<?xml version="1.0" encoding="UTF-8"?>
<svg width="22px" height="27px" viewBox="0 0 22 27" version="1.1" xmlns="http://www.w3.org/2000/svg" xmlns:xlink="http://www.w3.org/1999/xlink">
    <!-- Generator: Sketch 47.1 (45422) - http://www.bohemiancoding.com/sketch -->
    <title>logo</title>
    <desc>Created with Sketch.</desc>
    <defs></defs>
    <g id="polish" stroke="none" stroke-width="1" fill="none" fill-rule="evenodd">
        <g id="Desktop-Copy" transform="translate(-17.000000, -21.000000)">
            <g id="logo" transform="translate(17.000000, 21.000000)">
                <path d="M4.24999987,20.624999 L17.7499991,20.624999 L17.7499991,19.0416658 L4.24999987,19.0416658 L4.24999987,20.624999 Z M4.24999987,17.4583325 L17.7499991,17.4583325 L17.7499991,15.8749993 L4.24999987,15.8749993 L4.24999987,17.4583325 Z M4.24999987,14.291666 L17.7499991,14.291666 L17.7499991,12.7083328 L4.24999987,12.7083328 L4.24999987,14.291666 Z M4.24999987,11.1249996 L17.7499991,11.1249996 L17.7499991,9.54166633 L4.24999987,9.54166633 L4.24999987,11.1249996 Z M4.24999987,6.37499986 L4.24999987,7.9583331 L17.7499991,7.9583331 L17.7499991,6.37499986 L4.24999987,6.37499986 Z" id="Fill-2" fill="#FFFFFF"></path>
                <rect id="Rectangle" stroke="#FFFFFF" stroke-width="2" x="1" y="1" width="20" height="25"></rect>
            </g>
        </g>
    </g>
</svg>