<svg width="148" height="58" viewBox="0 0 148 58" xmlns="http://www.w3.org/2000/svg"><g fill="#FFF" fill-rule="evenodd" opacity=".5"><path d="M25.04 35.232l-3.918 6.783h7.835l-3.916-6.783zM19.44 0l-.482.144c.017-.083.072-.144.13-.144.058 0 .113.06.134.144l-.366.045c-1.026 1.19-1.588 2.71-1.588 4.28 0 1.32.402 2.62 1.123 3.78-1.78 1.67-2.88 3.93-3.02 6.41-3.48 3.43-6.11 7.63-7.66 12.28l-.06-.15c-.52 1.81-.78 3.69-.78 5.57 0 .21.01.42 0 .63L0 57.75l21.45-22.1c2.78-2.99 4.702-6.68 5.535-10.69l.35-9.16 1.89-.35.688 2.65c.782-.42 1.474-.982 2.01-1.69.698-.874 1.077-1.95 1.077-3.06 0-.352-.038-.704-.14-1.05l-.304-3.065c-.178-1.453-1.26-2.644-2.7-3.084h-.21c-1.268 0-2.518-.22-3.71-.68-1.28-.44-2.497-1.03-3.64-1.76l.14.01c-1.09-.85-2.01-1.9-2.787-3.09-.11-.18-.2-.36-.22-.62z" fill-rule="nonzero"/><path d="M37.14 31.572c.028.264.05.56.065.89.015.33.022.606.022.826h.066c.132-.28.312-.54.54-.78.226-.243.487-.456.78-.64.293-.182.616-.325.968-.428.36-.103.72-.154 1.1-.154.68 0 1.26.114 1.74.34.49.228.89.533 1.21.914.33.38.56.83.72 1.342.16.513.23 1.063.23 1.65V42h-2.07v-5.786c0-.425-.03-.83-.1-1.21s-.18-.72-.36-1.012c-.17-.293-.42-.528-.72-.704-.31-.176-.7-.264-1.19-.264-.82 0-1.49.312-2.01.935-.52.62-.78 1.45-.78 2.49V42h-2.07v-8.184c0-.28 0-.638-.02-1.078-.01-.44-.04-.83-.06-1.166h1.96zm21.493 5.192c0 .807-.143 1.547-.43 2.222-.285.675-.68 1.258-1.187 1.75-.506.49-1.104.872-1.793 1.143-.69.27-1.43.4-2.222.4-.79 0-1.53-.14-2.22-.41-.69-.27-1.28-.66-1.78-1.15-.5-.49-.89-1.08-1.17-1.75-.28-.68-.43-1.42-.43-2.22 0-.81.15-1.55.43-2.21.29-.67.68-1.25 1.18-1.73.5-.49 1.1-.87 1.79-1.14.69-.27 1.43-.41 2.22-.41.8 0 1.54.13 2.23.41.69.27 1.29.65 1.8 1.13s.9 1.06 1.19 1.72c.29.67.43 1.4.43 2.21zm-2.156 0c0-.5-.077-.975-.23-1.43-.155-.455-.38-.854-.672-1.2-.293-.344-.656-.62-1.09-.824-.432-.205-.927-.308-1.484-.308-.55 0-1.05.103-1.48.308-.43.205-.79.48-1.09.825-.29.345-.51.744-.67 1.2-.15.454-.23.93-.23 1.43 0 .498.08.974.23 1.43.16.454.38.857.67 1.21.3.35.66.63 1.09.835.44.205.93.308 1.49.308.56 0 1.06-.103 1.49-.308.44-.205.8-.484 1.09-.836.29-.352.52-.755.67-1.21.16-.455.23-.93.23-1.43zm10.12-3.498h-2.772V38.7c0 .63.117 1.082.352 1.353.235.27.61.407 1.122.407.19 0 .39-.022.61-.066.22-.044.42-.11.59-.198l.06 1.694c-.25.088-.53.158-.83.21-.3.05-.61.076-.94.076-.98 0-1.73-.27-2.26-.814-.52-.543-.78-1.357-.78-2.442v-5.654h-2v-1.694h2V28.58h2.05v2.992h2.77v1.694zm9.768 2.596c-.015-.41-.084-.796-.21-1.155-.124-.36-.307-.67-.55-.935-.24-.264-.542-.473-.9-.627-.36-.154-.782-.23-1.266-.23-.44 0-.86.076-1.25.23-.39.154-.73.363-1.01.627-.29.264-.52.576-.71.935-.19.36-.29.744-.32 1.155h6.2zm2.09.836v.352c0 .117-.007.235-.022.352H70.16c.016.44.115.854.298 1.243.183.39.43.726.737 1.012.308.286.664.51 1.067.67.403.162.832.243 1.287.243.7 0 1.31-.154 1.82-.462.51-.308.91-.682 1.21-1.122l1.45 1.166c-.56.733-1.22 1.272-1.97 1.617-.76.34-1.6.51-2.52.51-.8 0-1.53-.13-2.2-.4-.68-.27-1.26-.64-1.74-1.11-.49-.48-.87-1.06-1.15-1.73-.28-.68-.42-1.42-.42-2.25 0-.81.13-1.55.4-2.24.27-.68.65-1.27 1.13-1.75.48-.49 1.05-.86 1.71-1.13.66-.27 1.37-.41 2.13-.41s1.45.12 2.08.37c.62.25 1.15.61 1.58 1.07.43.47.76 1.03 1 1.7s.35 1.42.35 2.25zm10.45 10.582h-2.068V31.572h2.024V33.2h.07c.34-.557.83-1.016 1.49-1.375.66-.36 1.41-.54 2.28-.54.78 0 1.49.14 2.13.42.64.278 1.19.666 1.65 1.165.46.5.82 1.082 1.07 1.75.25.666.37 1.38.37 2.144 0 .763-.12 1.48-.37 2.156-.25.675-.6 1.26-1.05 1.76-.45.5-1 .89-1.65 1.177-.64.286-1.37.43-2.17.43-.74 0-1.45-.162-2.11-.485-.66-.323-1.18-.777-1.56-1.364h-.06v6.842zm6.864-10.516c0-.484-.08-.953-.22-1.408-.15-.455-.37-.858-.66-1.21-.3-.352-.66-.63-1.09-.836-.44-.205-.94-.308-1.51-.308-.53 0-1.01.103-1.44.308-.44.205-.81.484-1.11.836-.31.352-.55.755-.72 1.21-.17.455-.26.93-.26 1.43 0 .5.08.975.25 1.43.17.455.4.854.71 1.2.31.344.68.62 1.11.824.43.205.91.308 1.44.308.57 0 1.07-.106 1.51-.32.43-.212.79-.494 1.09-.846.29-.352.51-.755.66-1.21.14-.455.22-.924.22-1.408zm11.5-1.518c0-.777-.24-1.353-.71-1.727-.47-.38-1.1-.57-1.87-.57-.59 0-1.14.11-1.66.34-.52.23-.96.52-1.31.87l-1.1-1.32c.51-.49 1.14-.87 1.88-1.15.74-.28 1.53-.42 2.39-.42.74 0 1.39.1 1.94.32.55.21 1 .5 1.35.86.35.37.61.8.79 1.3.17.5.26 1.03.26 1.6v4.55c0 .35.01.72.03 1.11.02.39.06.71.12.96h-1.87c-.12-.5-.18-1-.18-1.5h-.07c-.38.55-.86.99-1.44 1.3-.58.31-1.27.46-2.06.46-.42 0-.84-.06-1.29-.17-.45-.11-.86-.29-1.22-.54-.37-.25-.68-.58-.92-.99-.24-.41-.37-.92-.37-1.52 0-.79.21-1.42.64-1.88.43-.46.98-.81 1.67-1.06.69-.245 1.47-.4 2.333-.476.864-.073 1.737-.11 2.617-.11V35.2zm-.51 1.782c-.52 0-1.05.022-1.6.066-.55.044-1.05.132-1.5.264-.45.132-.82.33-1.11.594-.3.264-.44.616-.44 1.056 0 .308.06.565.18.77.12.205.29.374.49.506s.43.224.68.275c.25.05.5.07.77.07.97 0 1.71-.29 2.23-.87.52-.58.78-1.31.78-2.19v-.55h-.51zm5.94-3.212c0-.28-.01-.638-.03-1.078-.02-.44-.04-.83-.07-1.166h1.96c.02.264.05.568.06.913.01.345.02.627.02.847h.06c.29-.616.72-1.11 1.28-1.485.56-.374 1.2-.56 1.9-.56.32 0 .59.028.81.087l-.09 1.914c-.29-.073-.61-.11-.95-.11-.5 0-.93.092-1.3.275-.368.183-.67.43-.914.737-.24.308-.42.664-.54 1.067-.114.403-.173.825-.173 1.265V42h-2.06v-8.184zm7.96 0c0-.28-.01-.638-.02-1.078-.02-.44-.04-.83-.07-1.166h1.96c.03.264.05.568.06.913.01.345.02.627.02.847h.06c.29-.616.72-1.11 1.28-1.485.56-.374 1.2-.56 1.9-.56.32 0 .59.028.81.087l-.09 1.914c-.3-.073-.61-.11-.95-.11-.5 0-.93.092-1.3.275-.37.183-.67.43-.91.737-.24.308-.42.664-.54 1.067-.12.403-.17.825-.17 1.265V42h-2.07v-8.184zm18.52 2.948c0 .807-.15 1.547-.43 2.222-.29.675-.68 1.258-1.19 1.75-.51.49-1.11.872-1.8 1.143-.69.27-1.43.4-2.22.4s-1.54-.14-2.22-.41c-.69-.27-1.28-.66-1.78-1.15-.5-.49-.89-1.08-1.18-1.75-.29-.68-.43-1.42-.43-2.22 0-.81.14-1.55.43-2.21.28-.67.68-1.25 1.17-1.73.5-.49 1.09-.87 1.78-1.14.69-.27 1.43-.41 2.22-.41s1.53.13 2.22.41c.69.27 1.28.65 1.79 1.13.51.48.9 1.06 1.19 1.72.282.67.43 1.4.43 2.21zm-2.16 0c0-.5-.08-.975-.23-1.43-.16-.455-.38-.854-.67-1.2-.3-.344-.66-.62-1.09-.824-.44-.205-.93-.308-1.49-.308s-1.05.103-1.49.308c-.44.205-.8.48-1.09.825-.3.345-.52.744-.67 1.2-.16.454-.23.93-.23 1.43 0 .498.07.974.23 1.43.15.454.37.857.67 1.21.29.35.65.63 1.09.835.43.205.92.308 1.48.308s1.05-.103 1.48-.308c.43-.205.79-.484 1.09-.836.29-.352.51-.755.67-1.21.15-.455.23-.93.23-1.43zm10.12-3.498h-2.77V38.7c0 .63.11 1.082.35 1.353.23.27.61.407 1.12.407.19 0 .39-.022.61-.066.22-.044.41-.11.59-.198l.07 1.694c-.25.088-.53.158-.83.21-.3.05-.61.076-.94.076-.98 0-1.73-.27-2.26-.814-.52-.543-.78-1.357-.78-2.442v-5.654h-2v-1.694h2V28.58h2.05v2.992h2.77v1.694z"/></g></svg>