<?xml version="1.0" encoding="UTF-8"?>
<svg width="106px" height="27px" viewBox="0 0 106 27" version="1.1" xmlns="http://www.w3.org/2000/svg" xmlns:xlink="http://www.w3.org/1999/xlink">
    <!-- Generator: Sketch 47.1 (45422) - http://www.bohemiancoding.com/sketch -->
    <title>title-record</title>
    <desc>Created with Sketch.</desc>
    <defs></defs>
    <g id="polish" stroke="none" stroke-width="1" fill="none" fill-rule="evenodd">
        <g id="Artboard" transform="translate(0.000000, -1.000000)">
            <g id="title-record" transform="translate(-2.000000, -1.000000)">
                <text id="Record" font-family="RobotoCondensed-Bold, Roboto Condensed" font-size="28" font-style="condensed" font-weight="bold" fill="#FFFFFF">
                    <tspan x="0" y="26">Record</tspan>
                </text>
                <path d="M98,19.0526316 C100.371428,19.0526316 102.271428,17.1484208 102.271428,14.7894737 L102.285714,6.26315789 C102.285714,3.9042104 100.371428,2 98,2 C95.6285716,2 93.7142857,3.9042104 93.7142857,6.26315789 L93.7142857,14.7894737 C93.7142857,17.1484208 95.6285716,19.0526316 98,19.0526316 Z M96.2857144,6.12105208 C96.2857144,5.18315757 97.057143,4.41578886 98,4.41578886 C98.9428569,4.41578886 99.7142854,5.18315757 99.7142854,6.12105208 L99.6999993,14.9315781 C99.6999993,15.8694725 98.9428569,16.636841 98,16.636841 C97.057143,16.636841 96.2857144,15.8694725 96.2857144,14.9315781 L96.2857144,6.12105276 L96.2857144,6.12105208 Z M105.571427,14.7894737 C105.571427,19.0526316 101.942856,22.0368425 97.9999986,22.0368425 C94.0571412,22.0368425 90.4285711,19.0526316 90.4285711,14.7894737 L88,14.7894737 C88,19.6352629 91.8857147,23.6426309 96.5714286,24.3389464 L96.5714286,29 L99.4285714,29 L99.4285714,24.3389464 C104.114287,23.6568417 108,19.6494724 108,14.7894737 L105.571427,14.7894737 Z" id="Fill-2-Copy" fill="#0655CD"></path>
            </g>
        </g>
    </g>
</svg>