<?xml version="1.0" encoding="UTF-8"?>
<svg width="141px" height="30px" viewBox="0 0 141 30" version="1.1" xmlns="http://www.w3.org/2000/svg" xmlns:xlink="http://www.w3.org/1999/xlink">
    <!-- Generator: Sketch 47.1 (45422) - http://www.bohemiancoding.com/sketch -->
    <title>title-org</title>
    <desc>Created with Sketch.</desc>
    <defs></defs>
    <g id="polish" stroke="none" stroke-width="1" fill="none" fill-rule="evenodd">
        <g id="Artboard" transform="translate(-1.000000, -61.000000)">
            <g id="title-org" transform="translate(0.000000, 57.000000)">
                <text id="Organize-Copy" font-family="RobotoCondensed-Bold, Roboto Condensed" font-size="29" font-style="condensed" font-weight="bold" fill="#FFFFFF">
                    <tspan x="0" y="27">Organize</tspan>
                </text>
                <g id="organize-copy" transform="translate(114.000000, 5.000000)">
                    <ellipse id="Oval" fill="#0655CD" fill-rule="nonzero" cx="3.18181818" cy="12" rx="3.18181818" ry="3.15789474"></ellipse>
                    <path d="M5.72727273,12 L9.54545455,12" id="Line" stroke="#0655CD" stroke-width="1.27999997" stroke-linecap="square"></path>
                    <ellipse id="Oval" stroke="#0655CD" stroke-width="1.27999997" fill-rule="nonzero" cx="18.4545455" cy="3.15789474" rx="3.18181818" ry="3.15789474"></ellipse>
                    <ellipse id="Oval" stroke="#0655CD" stroke-width="1.27999997" fill-rule="nonzero" cx="18.4545455" cy="20.8421053" rx="3.18181818" ry="3.15789474"></ellipse>
                    <path d="M24.5807327,8.91428571 C23.114209,8.91428571 21.8665183,9.84205714 21.3813243,11.1428571 L18.0000109,11.1428571 C17.6013243,9.09188571 15.801422,7.54285714 13.6390773,7.54285714 C13.1467028,7.54285714 12.6741601,7.62651429 12.231365,7.77462857 L10.9894871,5.78502857 C11.5707626,5.17028571 11.9294437,4.34194286 11.9294437,3.42857143 C11.9294437,1.53531429 10.3986377,0 8.51017639,0 C6.62205699,0 5.09090909,1.53531429 5.09090909,3.42857143 C5.09090909,5.32148571 6.62205699,6.85714286 8.51017639,6.85714286 C8.87022524,6.85714286 9.21625509,6.80091429 9.54245319,6.69737143 L10.7439837,8.62217143 C9.79650475,9.43988571 9.19402985,10.6484571 9.19402985,12 C9.19402985,13.3882286 9.82762008,14.628 10.8198915,15.4453714 L9.59989688,17.3238857 C9.2572863,17.208 8.89142469,17.1428571 8.51017639,17.1428571 C6.62205699,17.1428571 5.09090909,18.6781714 5.09090909,20.5714286 C5.09090909,22.4643429 6.62205699,24 8.51017639,24 C10.3986377,24 11.9294437,22.4643429 11.9294437,20.5714286 C11.9294437,19.68 11.587175,18.8705143 11.0312022,18.2609143 L12.3308657,16.2603429 C12.744597,16.3878857 13.1836309,16.4571429 13.6390773,16.4571429 C15.801422,16.4571429 17.6013243,14.9081143 18.0000109,12.8571429 L21.2042062,12.8571429 C21.4521031,14.5059429 22.8669959,15.7714286 24.5807327,15.7714286 C26.469194,15.7714286 28,14.2357714 28,12.3428571 C28,10.4496 26.469194,8.91428571 24.5807327,8.91428571 Z M13.6390773,14.7428571 C12.1308385,14.7428571 10.9036635,13.5123429 10.9036635,12 C10.9036635,10.4876571 12.1308385,9.25714286 13.6390773,9.25714286 C15.1473161,9.25714286 16.3744912,10.4876571 16.3744912,12 C16.3744912,13.5123429 15.1473161,14.7428571 13.6390773,14.7428571 Z" id="Shape" fill="#0655CD" fill-rule="nonzero"></path>
                </g>
            </g>
        </g>
    </g>
</svg>